<svg xmlns="http://www.w3.org/2000/svg" id="Layer_1" viewBox="0 0 1111.4 740.6">
  <style>
    .st0{fill:#35567B;} .st1{fill:none;stroke:#3D6995;stroke-width:32.5675;stroke-linecap:round;stroke-linejoin:round;stroke-miterlimit:10;} .st2{fill:none;stroke:#35567B;stroke-width:32.5675;stroke-linecap:round;stroke-linejoin:round;stroke-miterlimit:10;} .st3{fill:#F062A0;} .st4{fill:#FBE90C;} .st5{fill:#F29320;} .st6{fill:#39A9E0;} .st7{fill:#6A767D;} .st8{fill:#EBA387;} .st9{fill:#F9B092;} .st10{fill:#657C8E;} .st11{fill:#FDEC0A;} .st12{opacity:0.17;fill:#1D1D1B;} .st13{fill:#CCC6E3;} .st14{opacity:0.11;fill:#1D1D1B;} .st15{fill:#A2DAD8;} .st16{fill:#91D3CC;} .st17{fill:#F9D084;} .st18{opacity:0.15;fill:#1D1D1B;} .st19{fill:#C9E7F9;} .st20{fill:#8DA6B8;} .st21{fill:#2569B3;} .st22{fill:#F7EB73;} .st23{fill:#2E7CC0;} .st24{fill:none;stroke:#2569B3;stroke-width:26.5683;stroke-linecap:round;stroke-linejoin:round;stroke-miterlimit:10;} .st25{fill:#E776A6;} .st26{fill:#C3D1EB;} .st27{fill:#93A0C2;} .st28{fill:#AEAEC5;} .st29{fill:#FFFFFF;} .st30{fill:#F0E1C9;} .st31{fill:#EDF1FA;} .st32{fill:#AF6A4B;} .st33{fill:#BA7C64;} .st34{fill:#78CDD3;} .st35{fill:#2D9497;} .st36{fill:#FBC4A9;} .st37{fill:#F89E73;} .st38{fill:#1D737D;} .st39{fill:#15666F;} .st40{fill:#30858E;} .st41{fill:#0E6670;} .st42{fill:#C3D1EB;stroke:#1D737D;stroke-width:3.7206;stroke-miterlimit:10;} .st43{fill:none;stroke:#1D737D;stroke-width:3.7206;stroke-miterlimit:10;} .st44{fill:#C3D1EB;stroke:#1D737D;stroke-width:3.9049;stroke-miterlimit:10;} .st45{fill:none;stroke:#1D737D;stroke-width:3.9049;stroke-miterlimit:10;} .st46{fill:#C3D1EB;stroke:#1D737D;stroke-width:3.3241;stroke-miterlimit:10;} .st47{fill:none;stroke:#FFFFFF;stroke-width:7.7614;stroke-linecap:round;stroke-linejoin:round;stroke-miterlimit:10;} .st48{fill:none;stroke:#FFFFFF;stroke-width:8.0581;stroke-linecap:round;stroke-linejoin:round;stroke-miterlimit:10;} .st49{fill:none;stroke:#30858E;stroke-width:7.7614;stroke-linecap:round;stroke-linejoin:round;stroke-miterlimit:10;} .st50{fill:#D6DEB1;} .st51{fill:#B8C08E;} .st52{fill:#E4885B;} .st53{fill:#FAB999;} .st54{fill:#C3D1EB;stroke:#1D737D;stroke-width:4.2625;stroke-miterlimit:10;} .st55{fill:none;stroke:#1D737D;stroke-width:4.2625;stroke-miterlimit:10;} .st56{fill:none;stroke:#FAB999;stroke-width:7.7614;stroke-linecap:round;stroke-linejoin:round;stroke-miterlimit:10;} .st57{fill:#37ADB3;} .st58{fill:#297F83;} .st59{fill:none;stroke:#FFFFFF;stroke-width:12.0871;stroke-linecap:round;stroke-linejoin:round;stroke-miterlimit:10;} .st60{fill:none;stroke:#C3D1EB;stroke-width:14.7731;stroke-linecap:round;stroke-linejoin:round;stroke-miterlimit:10;} .st61{fill:#CCE3F6;} .st62{fill:#B5D5F0;} .st63{fill:#B6C6E6;} .st64{fill:#AED0EE;} .st65{fill:#C3DDF4;} .st66{fill:#AED24E;} .st67{fill:#08ACBA;} .st68{fill:#067D87;} .st69{fill:#6096C7;} .st70{fill:none;stroke:#6096C7;stroke-width:19.4787;stroke-linecap:round;stroke-linejoin:round;stroke-miterlimit:10;} .st71{fill:#7D9C3D;} .st72{fill:#ADD1EF;} .st73{fill:#BBC5CB;} .st74{fill:#A4B2B8;} .st75{fill:#96B540;} .st76{fill:none;stroke:#9CC1E5;stroke-width:6.9567;stroke-linecap:round;stroke-linejoin:round;stroke-miterlimit:10;} .st77{fill:none;stroke:#6096C7;stroke-width:18.0873;stroke-linecap:round;stroke-linejoin:round;stroke-miterlimit:10;} .st78{fill:none;stroke:#AF6A4B;stroke-width:15.0125;stroke-linecap:round;stroke-linejoin:round;stroke-miterlimit:10;} .st79{fill:none;stroke:#BA7C64;stroke-width:16.4465;stroke-linecap:round;stroke-linejoin:round;stroke-miterlimit:10;} .st80{fill:none;stroke:#AF6A4B;stroke-width:14.4833;stroke-linecap:round;stroke-linejoin:round;stroke-miterlimit:10;} .st81{fill:none;stroke:#AF6A4B;stroke-width:15.7073;stroke-linecap:round;stroke-linejoin:round;stroke-miterlimit:10;} .st82{fill:#F9C6D6;} .st83{fill:#F29BB3;} .st84{fill:none;stroke:#D890BE;stroke-width:17.7404;stroke-linecap:round;stroke-linejoin:round;stroke-miterlimit:10;} .st85{fill:none;stroke:#F8C3DA;stroke-width:21.7533;stroke-linecap:round;stroke-linejoin:round;stroke-miterlimit:10;} .st86{fill:none;stroke:#F8C3DA;stroke-width:16.8066;stroke-linecap:round;stroke-linejoin:round;stroke-miterlimit:10;} .st87{fill:none;stroke:#F8C3DA;stroke-width:19.9405;stroke-linecap:round;stroke-linejoin:round;stroke-miterlimit:10;} .st88{fill:none;stroke:#F8C3DA;stroke-width:16.315;stroke-linecap:round;stroke-linejoin:round;stroke-miterlimit:10;} .st89{fill:none;stroke:#D890BE;stroke-width:24.4725;stroke-linecap:round;stroke-linejoin:round;stroke-miterlimit:10;} .st90{fill:none;stroke:#D890BE;stroke-width:22.6597;stroke-linecap:round;stroke-linejoin:round;stroke-miterlimit:10;} .st91{fill:none;stroke:#F8C3DA;stroke-width:23.5661;stroke-linecap:round;stroke-linejoin:round;stroke-miterlimit:10;} .st92{fill:none;stroke:#D890BE;stroke-width:21.7533;stroke-linecap:round;stroke-linejoin:round;stroke-miterlimit:10;} .st93{fill:none;stroke:#D890BE;stroke-width:19.0342;stroke-linecap:round;stroke-linejoin:round;stroke-miterlimit:10;} .st94{fill:#D890BE;stroke:#D890BE;stroke-width:14.5022;stroke-linecap:round;stroke-linejoin:round;stroke-miterlimit:10;} .st95{fill:#D890BE;stroke:#D890BE;stroke-width:12.6894;stroke-linecap:round;stroke-linejoin:round;stroke-miterlimit:10;} .st96{fill:none;stroke:#A7CF48;stroke-width:15.4086;stroke-linecap:round;stroke-linejoin:round;stroke-miterlimit:10;} .st97{fill:none;stroke:#F8C3DA;stroke-width:15.4086;stroke-linecap:round;stroke-linejoin:round;stroke-miterlimit:10;} .st98{fill:#D890BE;stroke:#D890BE;stroke-width:18.1278;stroke-linecap:round;stroke-linejoin:round;stroke-miterlimit:10;} .st99{fill:#FBF062;} .st100{fill:#F8B232;} .st101{fill:none;stroke:#669ED3;stroke-width:24.9538;stroke-linecap:round;stroke-linejoin:round;stroke-miterlimit:10;} .st102{fill:none;stroke:#669ED3;stroke-width:24.5417;stroke-linecap:round;stroke-linejoin:round;stroke-miterlimit:10;} .st103{fill:none;stroke:#ADD1EF;stroke-width:24.5417;stroke-linecap:round;stroke-linejoin:round;stroke-miterlimit:10;} .st104{fill:#97C5EA;} .st105{fill:#A53C92;stroke:#669ED3;stroke-width:24.5417;stroke-linecap:round;stroke-linejoin:round;stroke-miterlimit:10;} .st106{fill:none;stroke:#F68C3A;stroke-width:24.5417;stroke-linecap:round;stroke-linejoin:round;stroke-miterlimit:10;} .st107{fill:none;stroke:#97C5EA;stroke-width:24.5417;stroke-linecap:round;stroke-linejoin:round;stroke-miterlimit:10;} .st108{fill:#7E5342;} .st109{fill:#996652;} .st110{fill:#F8C3DA;} .st111{opacity:0.69;fill:#D890BE;} .st112{opacity:0.56;fill:#FFFFFF;} .st113{fill:#DCE5F4;} .st114{fill:#CAD5ED;} .st115{fill:#ECF0F9;} .st116{fill:#D6DFF2;} .st117{fill:#80C348;} .st118{fill:#80C343;} .st119{fill:#08A186;} .st120{fill:#09939F;} .st121{fill:#24B786;} .st122{fill:#F27085;} .st123{fill:#EC697B;} .st124{fill:none;stroke:#08ACBA;stroke-width:54.4622;stroke-linecap:round;stroke-linejoin:round;stroke-miterlimit:10;} .st125{fill:#8EC74F;} .st126{fill:#F26965;} .st127{fill:none;stroke:#FFFFFF;stroke-width:12.2597;stroke-miterlimit:10;} .st128{opacity:0.13;fill:#1D1D1B;} .st129{fill:#96CB60;} .st130{fill:#FDEF40;} .st131{fill:#CE88BA;} .st132{fill:#98CBEE;} .st133{fill:#6B89C1;} .st134{fill:#C5DB65;} .st135{fill:#ADCF54;} .st136{fill:none;stroke:#13815A;stroke-width:3.5086;stroke-miterlimit:10;} .st137{fill:#139266;} .st138{fill:#179E6F;} .st139{fill:#13815A;} .st140{fill:#B45749;} .st141{fill:none;stroke:#505170;stroke-width:4.5446;stroke-linecap:round;stroke-linejoin:round;stroke-miterlimit:10;} .st142{fill:none;stroke:#13815A;stroke-width:4.2623;stroke-miterlimit:10;} .st143{fill:#F04A58;} .st144{fill:#E83140;} .st145{fill:none;stroke:#505170;stroke-width:7.2918;stroke-linecap:round;stroke-linejoin:round;stroke-miterlimit:10;} .st146{fill:#505170;} .st147{fill:none;stroke:#505170;stroke-width:4.8612;stroke-linecap:round;stroke-linejoin:round;stroke-miterlimit:10;} .st148{fill:#FFD341;} .st149{fill:#FFCF2E;} .st150{fill:none;stroke:#505170;stroke-width:7.0591;stroke-linecap:round;stroke-linejoin:round;stroke-miterlimit:10;} .st151{fill:none;stroke:#505170;stroke-width:4.7061;stroke-linecap:round;stroke-linejoin:round;stroke-miterlimit:10;} .st152{fill:#8DD3D1;} .st153{fill:#DFF3FD;} .st154{fill:#AAE0FA;} .st155{fill:#B2E0E0;} .st156{fill:#C4E9FB;} .st157{fill:#72CEE8;} .st158{fill:#FDF05C;} .st159{fill:#E6E867;} .st160{fill:#B3D55F;} .st161{fill:#8AD4E2;} .st162{fill:none;stroke:#F8B232;stroke-width:11.2323;stroke-miterlimit:10;} .st163{fill:#D8E14B;} .st164{opacity:0.42;fill:#E1EFFA;} .st165{opacity:0.56;fill:#B5C736;} .st166{opacity:0.6;fill:#FFFFFF;} .st167{fill:#C5DFF4;} .st168{opacity:0.25;fill:#1D1D1B;} .st169{fill:#6C8DC8;} .st170{fill:#5F7CB1;} .st171{fill:#F7EA63;} .st172{fill:#7B9CD1;} .st173{fill:#A1DBE8;} .st174{fill:#E75B68;} .st175{fill:#F1F6FC;} .st176{opacity:0.82;fill:#E6E867;} .st177{opacity:0.56;} .st178{fill:#B5C736;} .st179{fill:#FEC776;} .st180{fill:#ACE1F7;} .st181{fill:#D88ABB;} .st182{fill:#70D0F6;} .st183{fill:none;stroke:#FFFFFF;stroke-width:32.7763;stroke-linecap:round;stroke-linejoin:round;stroke-miterlimit:10;} .st184{fill:none;stroke:#FFFFFF;stroke-width:39.0909;stroke-linecap:round;stroke-linejoin:round;stroke-miterlimit:10;} .st185{fill:none;stroke:#FEE25E;stroke-width:62.8461;stroke-linecap:round;stroke-linejoin:round;stroke-miterlimit:10;} .st186{fill:#58C3F0;} .st187{fill:none;stroke:#FEE25E;stroke-width:68.7236;stroke-linecap:round;stroke-linejoin:round;stroke-miterlimit:10;} .st188{fill:#FEE25E;} .st189{fill:none;stroke:#FFCF5F;stroke-width:47.9458;stroke-linecap:round;stroke-linejoin:round;stroke-miterlimit:10;} .st190{fill:#CA9E68;} .st191{fill:#B17F4A;} .st192{opacity:0.23;fill:#1D1D1B;} .st193{fill:#6DC497;} .st194{fill:#31AC66;} .st195{fill:none;stroke:#F89E73;stroke-width:37.0474;stroke-linecap:round;stroke-linejoin:round;stroke-miterlimit:10;} .st196{opacity:0.23;fill:#FFFFFF;} .st197{fill:none;stroke:#FFFFFF;stroke-width:35.1053;stroke-linecap:round;stroke-linejoin:round;stroke-miterlimit:10;} .st198{fill:none;stroke:#BABADD;stroke-width:44.7866;stroke-linecap:round;stroke-linejoin:round;stroke-miterlimit:10;} .st199{fill:none;stroke:#F89E73;stroke-width:43.4637;stroke-linecap:round;stroke-linejoin:round;stroke-miterlimit:10;} .st200{fill:none;stroke:#FEC776;stroke-width:49.9051;stroke-linecap:round;stroke-linejoin:round;stroke-miterlimit:10;} .st201{fill:#FFF2D8;} .st202{fill:#F47A55;} .st203{opacity:0.29;fill:#1D1D1B;} .st204{fill:#FAB070;} .st205{fill:#2DBAA3;} .st206{fill:#F59AA5;} .st207{fill:#1D1D1B;} .st208{opacity:0.22;fill:#1D1D1B;} .st209{fill:none;stroke:#9A684C;stroke-width:10.5705;stroke-miterlimit:10;} .st210{fill:none;stroke:#505170;stroke-width:3.4337;stroke-linecap:round;stroke-linejoin:round;stroke-miterlimit:10;} .st211{fill:none;stroke:#505170;stroke-width:5.8219;stroke-linecap:round;stroke-linejoin:round;stroke-miterlimit:10;} .st212{fill:none;stroke:#13815A;stroke-width:2.7629;stroke-miterlimit:10;} .st213{fill:#B5D565;} .st214{fill:#D0E073;} .st215{fill:#EBF0BA;} .st216{fill:#9A684C;} .st217{fill:#F2B998;} .st218{fill:none;} .st219{opacity:0.14;fill:#1D1D1B;} .st220{opacity:0.21;fill:#1D1D1B;} .st221{fill:#894E9F;} .st222{fill:#662C83;} .st223{fill:none;stroke:#AD7760;stroke-width:28.0403;stroke-linecap:round;stroke-linejoin:round;stroke-miterlimit:10;} .st224{fill:#F37546;} .st225{fill:#FEDE5D;} .st226{fill:#F58459;} .st227{fill:#F68B3B;} .st228{fill:#F69068;} .st229{fill:none;stroke:#13815A;stroke-width:3.2518;stroke-miterlimit:10;} .st230{fill:none;stroke:#FFFFFF;stroke-width:43.031;stroke-linecap:round;stroke-linejoin:round;stroke-miterlimit:10;} .st231{fill:#FBD5DD;} .st232{fill:#61BE72;} .st233{fill:#F7EB71;} .st234{fill:#F6B35C;} .st235{fill:#DC663F;} .st236{fill:none;stroke:#C7D54B;stroke-width:51.4716;stroke-linecap:round;stroke-linejoin:round;stroke-miterlimit:10;} .st237{fill:none;stroke:#C7D54B;stroke-width:53.6995;stroke-linecap:round;stroke-linejoin:round;stroke-miterlimit:10;} .st238{fill:#C7D54B;} .st239{fill:none;stroke:#B5E4FA;stroke-width:56.7283;stroke-linecap:round;stroke-linejoin:round;stroke-miterlimit:10;} .st240{fill:none;stroke:#91D7F4;stroke-width:54.3646;stroke-linecap:round;stroke-linejoin:round;stroke-miterlimit:10;} .st241{fill:none;stroke:#B5E4FA;stroke-width:54.3646;stroke-linecap:round;stroke-linejoin:round;stroke-miterlimit:10;} .st242{fill:none;stroke:#B5E4FA;stroke-width:47.2736;stroke-linecap:round;stroke-linejoin:round;stroke-miterlimit:10;} .st243{fill:#91D7F4;} .st244{fill:none;stroke:#C7D54B;stroke-width:30.4151;stroke-linecap:round;stroke-linejoin:round;stroke-miterlimit:10;} .st245{fill:#29BAA0;} .st246{fill:#455565;} .st247{fill:#95C13D;} .st248{fill:#AC4A6C;} .st249{fill:#A53C92;} .st250{fill:none;stroke:#6096C7;stroke-width:19.7002;stroke-linecap:round;stroke-linejoin:round;stroke-miterlimit:10;} .st251{fill:none;stroke:#A53C92;stroke-width:27.1789;stroke-linecap:round;stroke-linejoin:round;stroke-miterlimit:10;} .st252{fill:none;stroke:#A53C92;stroke-width:31;stroke-linecap:round;stroke-linejoin:round;stroke-miterlimit:10;} .st253{fill:none;stroke:#F7EB73;stroke-width:26.7301;stroke-linecap:round;stroke-linejoin:round;stroke-miterlimit:10;} .st254{fill:none;stroke:#F68C3A;stroke-width:26.7301;stroke-linecap:round;stroke-linejoin:round;stroke-miterlimit:10;} .st255{fill:none;stroke:#A53C92;stroke-width:26.7301;stroke-linecap:round;stroke-linejoin:round;stroke-miterlimit:10;} .st256{fill:#F68C3A;} .st257{fill:#A53C92;stroke:#A53C92;stroke-width:26.7301;stroke-linecap:round;stroke-linejoin:round;stroke-miterlimit:10;} .st258{fill:#CFC2E0;} .st259{fill:#BFB2D7;} .st260{fill:#A294C7;} .st261{fill:#AD9ECC;} .st262{fill:#DED5EA;} .st263{fill:#DED154;} .st264{fill:#4F6274;} .st265{fill:#C2D991;} .st266{fill:#A1AE88;} .st267{fill:#9EB177;} .st268{fill:#7B8A5D;} .st269{fill:#DEDC1F;stroke:#455565;stroke-width:5.5601;stroke-linecap:round;stroke-linejoin:round;stroke-miterlimit:10;} .st270{fill:none;stroke:#455565;stroke-width:3.7067;stroke-miterlimit:10;} .st271{fill:#9C9C9B;stroke:#455565;stroke-width:3.9562;stroke-linecap:round;stroke-linejoin:round;stroke-miterlimit:10;} .st272{fill:#DEDC1F;stroke:#455565;stroke-width:6.1782;stroke-linecap:round;stroke-linejoin:round;stroke-miterlimit:10;} .st273{fill:none;stroke:#455565;stroke-width:4.1188;stroke-miterlimit:10;} .st274{fill:#DBDADA;stroke:#455565;stroke-width:4.3961;stroke-linecap:round;stroke-linejoin:round;stroke-miterlimit:10;} .st275{fill:#C8567E;} .st276{fill:#D9E7A4;} .st277{fill:#FDEC0A;stroke:#455565;stroke-width:5.346;stroke-miterlimit:10;} .st278{fill:#C0E6ED;} .st279{fill:#7FA1A3;} .st280{fill:#AEDBDE;} .st281{fill:#717070;} .st282{fill:#DEDC1F;stroke:#455565;stroke-width:6.1322;stroke-linecap:round;stroke-linejoin:round;stroke-miterlimit:10;} .st283{fill:none;stroke:#455565;stroke-width:4.0882;stroke-miterlimit:10;} .st284{fill:#DBDADA;stroke:#455565;stroke-width:4.3633;stroke-linecap:round;stroke-linejoin:round;stroke-miterlimit:10;} .st285{fill:#9C9C9B;stroke:#455565;stroke-width:4.3633;stroke-linecap:round;stroke-linejoin:round;stroke-miterlimit:10;} .st286{fill:#5C7388;} .st287{fill:none;stroke:#455565;stroke-width:26.7301;stroke-linecap:round;stroke-linejoin:round;stroke-miterlimit:10;} .st288{fill:#F17922;} .st289{fill:#F89C58;} .st290{fill:none;stroke:#3D3D3C;stroke-width:3.9413;stroke-miterlimit:10;} .st291{fill:#3D3D3C;} .st292{fill:#A53C92;stroke:#A53C92;stroke-width:28;stroke-linecap:round;stroke-linejoin:round;stroke-miterlimit:10;} .st293{fill:#D2EEF7;} .st294{fill:#C0E7F2;} .st295{fill:#577699;} .st296{fill:none;stroke:#9D8EC4;stroke-width:21.4812;stroke-linecap:round;stroke-linejoin:round;stroke-miterlimit:10;} .st297{fill:none;stroke:#9D8EC4;stroke-width:16.7076;stroke-linecap:round;stroke-linejoin:round;stroke-miterlimit:10;} .st298{fill:#8F80BC;} .st299{fill:#FBAB28;} .st300{fill:none;stroke:#9D8EC4;stroke-width:19.2832;stroke-linecap:round;stroke-linejoin:round;stroke-miterlimit:10;} .st301{fill:none;stroke:#9D8EC4;stroke-width:14.998;stroke-linecap:round;stroke-linejoin:round;stroke-miterlimit:10;} .st302{fill:#9485BF;} .st303{fill:none;stroke:#455565;stroke-width:11.584;stroke-linecap:round;stroke-linejoin:round;stroke-miterlimit:10;} .st304{fill:#E8DB18;} .st305{fill:#FDEE1C;} .st306{fill:none;stroke:#BDDBF3;stroke-width:6.1335;stroke-linecap:round;stroke-linejoin:round;stroke-miterlimit:10;} .st307{fill:#E1F1FB;} .st308{fill:none;stroke:#445070;stroke-width:104.9949;stroke-linecap:round;stroke-linejoin:round;stroke-miterlimit:10;} .st309{fill:#445070;} .st310{fill:#FFD686;} .st311{fill:#B6C4E5;} .st312{fill:#FACD74;} .st313{fill:#FFE4B0;} .st314{fill:#C75869;} .st315{fill:none;stroke:#F27085;stroke-width:6.2994;stroke-linecap:round;stroke-linejoin:round;stroke-miterlimit:10;} .st316{fill:#F5C668;} .st317{fill:#E66678;} .st318{fill:#926940;} .st319{fill:#683E17;} .st320{fill:#ABD0EE;} .st321{fill:#85B0D9;} .st322{fill:#FCD0BB;} .st323{fill:#F9AFA4;} .st324{fill:#F69888;} .st325{fill:#526187;} .st326{fill:none;stroke:#F8A79A;stroke-width:2;stroke-miterlimit:10;} .st327{fill:none;stroke:#FABEB4;stroke-width:2;stroke-miterlimit:10;} .st328{fill:#F29320;stroke:#526187;stroke-width:1.7536;stroke-miterlimit:10;} .st329{fill:none;stroke:#FFFFFF;stroke-width:5.2559;stroke-linecap:round;stroke-linejoin:round;stroke-miterlimit:10;} .st330{fill:none;stroke:#FAB999;stroke-width:5.2559;stroke-linecap:round;stroke-linejoin:round;stroke-miterlimit:10;} .st331{fill:#A7D9C1;} .st332{fill:#75C69A;} .st333{fill:#EC697A;} .st334{fill:none;stroke:#A7D9C1;stroke-width:2;stroke-miterlimit:10;} .st335{fill:none;stroke:#75C69A;stroke-width:2;stroke-miterlimit:10;} .st336{fill:none;stroke:#B8C08E;stroke-width:2;stroke-miterlimit:10;} .st337{fill:#F8ED87;} .st338{fill:#F8F4C7;} .st339{fill:none;stroke:#F8B2B3;stroke-width:1.169;stroke-linecap:round;stroke-linejoin:round;stroke-miterlimit:10;} .st340{fill:#6C7EB1;} .st341{fill:#C9E0F4;} .st342{fill:#8DB5DF;} .st343{fill:#E86778;}
  </style>
  <path d="M95.5 222.6C95.5 99.7 292.2 0 534.7 0s471.6 99.7 471.6 222.6-229 222.7-471.6 222.7S95.5 345.6 95.5 222.6z" class="st61"/>
  <path d="M997 423.6c0-20.7 16.8-37.5 37.5-37.5H105.6c20.7 0 37.5 16.8 37.5 37.5s-16.8 37.5-37.5 37.5h928.9c-20.7 0-37.5-16.8-37.5-37.5z" class="st62"/>
  <path d="M943.4 629.7H319.3c-18.8 0-34.1-15.3-34.1-34.1s15.3-34.1 34.1-34.1h624.2c18.8 0 34.1 15.3 34.1 34.1-.1 18.9-15.3 34.1-34.2 34.1z" class="st63"/>
  <path d="M1019.8 562H109.2c-28.4 0-51.5-23-51.5-51.5 0-28.4 23-51.5 51.5-51.5h910.7c28.4 0 51.5 23 51.5 51.5-.1 28.5-23.1 51.5-51.6 51.5z" class="st64"/>
  <path d="M918.8 208.5H152.2c-20.7 0-37.5-16.8-37.5-37.5s16.8-37.5 37.5-37.5h766.6c20.7 0 37.5 16.8 37.5 37.5s-16.8 37.5-37.5 37.5z" class="st61"/>
  <path d="M807.9 173.5H659.6c-20.7 0-37.5-16.8-37.5-37.5s16.8-37.5 37.5-37.5h148.3c20.7 0 37.5 16.8 37.5 37.5.1 20.7-16.7 37.5-37.5 37.5z" class="st29"/>
  <path d="M774.2 135.7h-83.5c-20.7 0-37.5-16.8-37.5-37.5s16.8-37.5 37.5-37.5h83.5c20.7 0 37.5 16.8 37.5 37.5s-16.8 37.5-37.5 37.5zM744.4 461H450.1c-20.7 0-37.5-16.8-37.5-37.5s16.8-37.5 37.5-37.5h294.4c20.7 0 37.5 16.8 37.5 37.5S765.2 461 744.4 461zM916 212.1H621.7c-20.7 0-37.5-16.8-37.5-37.5s16.8-37.5 37.5-37.5H916c20.7 0 37.5 16.8 37.5 37.5s-16.8 37.5-37.5 37.5z" class="st29"/>
  <path d="M1059.9 386.2H112.6c-28.4 0-51.5-23-51.5-51.5 0-28.4 23-51.5 51.5-51.5h947.3c28.4 0 51.5 23 51.5 51.5 0 28.4-23.1 51.5-51.5 51.5z" class="st65"/>
  <path d="M640.4 417.5l-166 4.1c-20.7 0-37.5-16.8-37.5-37.5s16.8-37.5 37.5-37.5l166-4.1c20.7 0 37.5 16.8 37.5 37.5 0 20.8-16.8 37.5-37.5 37.5z" class="st29"/>
  <path d="M997.9 544.6H844c-2.4.7-5.1 1.1-7.8 1.1h-574c-2.7 0-5.4-.4-7.8-1.1h-87.2c-17.2 0-27.6-19-18.5-33.6l151.4-242.6 21.8-35 .2-.4 3.9-6.3 23.9-38.4 5.1-8.2 1.4-2.3 1-1.6 20-32c.7-1.2 1.5-2.2 2.4-3.2.5-.6 1-1.1 1.6-1.6 1.1-1 2.2-1.8 3.5-2.5 1.7-1 3.5-1.8 5.4-2.2 2.2-.6 4.6-.8 6.9-.7 1 0 2 .2 3 .4.2 0 .4.1.6.1.2 0 .4.1.5.1.3.1.6.2.8.2l.9.3h.1c.3.1.6.2.9.4.3.1.5.2.8.3.1 0 .2.1.3.1l.6.3c.1.1.2.1.3.2l.6.3c.1.1.2.1.3.2.2.1.4.2.6.4.1 0 .2.1.3.2.2.1.4.2.6.4.2.1.4.3.6.5.1 0 .1.1.2.1.2.2.4.3.6.5.7.6 1.3 1.1 1.9 1.8l1.5 1.8c.4.5.8 1.1 1.1 1.6l.6 1 2.8 4.5 16.1 25.8 4.1 6.6.6 1 13.5-21.6.2-.4 3.8-6.1 5.2-8.3L498 88.6l1.8-2.9 26.2-42c.9-1.5 1.9-2.8 3-4 .6-.7 1.3-1.4 2-2 5.5-5 12.7-7.3 19.7-6.9 1.3.1 2.5.2 3.8.5.2 0 .5.1.7.2.2 0 .5.1.7.2l1.1.3c.4.1.8.2 1.2.4h.1c.4.1.8.3 1.2.4.3.1.7.3 1 .4.1 0 .2.1.4.2.3.1.5.2.8.4.1.1.3.1.4.2.3.1.5.3.8.4.1.1.3.2.4.2.2.1.5.3.7.5.1.1.2.1.4.2.2.2.5.3.7.5.3.2.5.4.8.6l.2.2c.3.2.5.4.8.6.8.7 1.6 1.4 2.4 2.3.7.7 1.3 1.5 1.9 2.2.5.7 1 1.3 1.4 2.1l1.1 1.8.2.3L597 83.1l5.2 8.3 1.9 3 28.3 45.4 2.4 3.8.4.6 30.3 48.5 93.9 150.5.6-1 6.8-10.9.1-.2 9-14.5 3-4.9 21.3-34.1 1-1.7 2.8-4.5 12.5-20c.5-.9 1.1-1.6 1.8-2.3l1.2-1.2c2.7-2.4 6-3.7 9.4-4 .7 0 1.4-.1 2.1 0 .7 0 1.5.1 2.2.3.2 0 .3.1.4.1.1 0 .3 0 .4.1.1 0 .2 0 .2.1.1 0 .3.1.4.1.2.1.5.1.7.2.2.1.5.2.7.3.2.1.4.2.6.2.1 0 .1.1.2.1.2.1.3.1.5.2.1 0 .2.1.2.1.2.1.3.2.5.2.1 0 .2.1.2.1.1.1.3.2.4.3.1 0 .1.1.2.1.1.1.3.2.4.3.2.1.3.2.5.3l.1.1c.2.1.3.2.5.4.5.4 1 .8 1.4 1.3.4.4.8.9 1.1 1.3.3.4.6.8.8 1.2l14.3 23 3 4.9.6 1 .5.7 7 11.3 9.5 15.2 1.4 2.2 15.6 25 .3.4 2.1 3.3L1011.5 520c6.6 10.7-1 24.6-13.6 24.6z" class="st27"/>
  <path d="M547.8 30.9h3c-1-.1-2-.1-3 0z" class="st28"/>
  <path d="M418 150.1v113.6c0 3.4-1 6.6-2.8 9.3-3 4.4-8 7.3-13.7 7.3-4.3 0-8.2-1.7-11.2-4.4-3.3-3-5.4-7.4-5.4-12.2V137.2c1.7-1 3.5-1.8 5.4-2.2 2.2-.6 4.6-.8 6.9-.7 1 0 2 .2 3 .4.2 0 .4.1.6.1.2 0 .4.1.5.1.3.1.6.2.8.2l.9.3h.1c.3.1.6.2.9.4.3.1.5.2.8.3.1 0 .2.1.3.1l.6.3c.1.1.2.1.3.2l.6.3c.1.1.2.1.3.2.2.1.4.2.6.4.1 0 .2.1.3.2.2.1.4.2.6.4.2.1.4.3.6.5.1 0 .1.1.2.1.2.2.4.3.6.5.7.6 1.3 1.1 1.9 1.8l1.5 1.8c.4.5.8 1.1 1.1 1.6l.6 1 3.1 4.6zm-60.5 26.4v107.3c0 6-3 11.3-7.5 14.5-2.9 2-6.4 3.2-10.2 3.2-9.8 0-17.7-8-17.7-17.8v-50.6l3.9-6.3 23.9-38.4 5.1-8.2 1.4-2.3 1.1-1.4z" class="st29"/>
  <path d="M452.5 161.5v122.2c0 10.4-8.4 18.8-18.7 18.8-10.3 0-18.7-8.4-18.7-18.8V145.5l2.8 4.5 16.1 25.8 4.1 6.6.6 1 13.5-21.6.3-.3zM390.3 135v180.8c0 11.2-9 20.2-20.1 20.2-11.2 0-20.2-9-20.2-20.2V188.5l5.1-8.2 1.4-2.3 1-1.6 20-32c.7-1.2 1.5-2.2 2.4-3.2.5-.6 1-1.1 1.6-1.6 1.1-1 2.2-1.8 3.5-2.5 1.6-.9 3.4-1.6 5.3-2.1z" class="st29"/>
  <path d="M895.8 334.7c-2.5 6.7-9 11.5-16.5 11.5-3.8 0-7.3-1.2-10.2-3.2v17.5c0 11.2-9 20.2-20.1 20.2-11.1 0-20.1-9.1-20.1-20.2v-39.9c-2.9 2.7-6.9 4.4-11.2 4.4-5.7 0-10.7-2.9-13.7-7.3v10.8c0 10.4-8.4 18.8-18.7 18.8-9.3 0-17.1-6.9-18.5-15.8l.1-.2 9-14.5 3-4.9 21.3-34.1 1-1.7 2.8-4.5 12.5-20c.5-.9 1.1-1.6 1.8-2.3l1.2-1.2c2.7-2.4 6-3.7 9.4-4 .7 0 1.4-.1 2.1 0 .7 0 1.5.1 2.2.3.2 0 .3.1.4.1.1 0 .3 0 .4.1.1 0 .2 0 .2.1.1 0 .3.1.4.1.2.1.5.1.7.2.2.1.5.2.7.3.2.1.4.2.6.2.1 0 .1.1.2.1.2.1.3.1.5.2.1 0 .2.1.2.1.2.1.3.2.5.2.1 0 .2.1.2.1.1.1.3.2.4.3.1 0 .1.1.2.1.1.1.3.2.4.3.2.1.3.2.5.3l.1.1c.2.1.3.2.5.4.5.4 1 .8 1.4 1.3.4.4.8.9 1.1 1.3.3.4.6.8.8 1.2l14.3 23 3 4.9.6 1 .5.7 7 11.3 9.5 15.2 1.4 2.2 15.9 24.9z" class="st27"/>
  <path d="M635.2 144.2v28.9c0 10.5-8.5 19-18.9 19-7.3 0-13.6-4.1-16.7-10.2V231c0 7.3-5.9 13.3-13.2 13.3-7.3 0-13.2-5.9-13.2-13.3v-49c-1.9 8.2-9.2 14.4-17.9 14.4-8.8 0-16.1-6.2-17.9-14.4v25.3c0 6.8-5.5 12.3-12.3 12.3-5.1 0-9.5-3.1-11.3-7.6v19c0 10.5-8.5 19-18.9 19-10.4 0-18.9-8.5-18.9-19v-19c-1.9 4.5-6.2 7.6-11.3 7.6-5.9 0-10.9-4.3-12-9.9-.2-.8-.2-1.6-.2-2.4V162l.2-.4 3.8-6.1 5.2-8.3L498 88.6l1.8-2.9 26.2-42c.9-1.5 1.9-2.8 3-4 .6-.7 1.3-1.4 2-2 5.5-5 12.7-7.3 19.7-6.9 1.3.1 2.5.2 3.8.5.2 0 .5.1.7.2.2 0 .5.1.7.2l1.1.3c.4.1.8.2 1.2.4h.1c.4.1.8.3 1.2.4.3.1.7.3 1 .4.1 0 .2.1.4.2.3.1.5.2.8.4.1.1.3.1.4.2.3.1.5.3.8.4.1.1.3.2.4.2.2.1.5.3.7.5.1.1.2.1.4.2.2.2.5.3.7.5.3.2.5.4.8.6l.2.2c.3.2.5.4.8.6.8.7 1.6 1.4 2.4 2.3.7.7 1.3 1.5 1.9 2.2.5.7 1 1.3 1.4 2.1l1.1 1.8v.8c0-.2.1-.4.2-.6L597 83.1l5.2 8.3 1.9 3 28.3 45.4 2.4 3.8.4.6z" class="st29"/>
  <path d="M539.2 32.8c.5-.2 1.1-.3 1.6-.4h.1c.5-.1 1.1-.2 1.6-.4l1.5-.3c.3-.1.6-.1.9-.2.4-.1.7-.1 1-.2 1.6-.2 3.3-.4 4.9-.5h-.1c-4.1-.2-8.3.5-12.1 2.1.3 0 .4-.1.6-.1z" class="st30"/>
  <path d="M634.8 143.6l-2.4-3.8-28.3-45.4-1.9-3-5.2-8.3-23.2-37.3c-.1.2-.1.4-.2.6v-.8l-1.1-1.8c-.4-.7-.9-1.4-1.4-2.1-.6-.8-1.2-1.5-1.9-2.2-.8-.8-1.6-1.6-2.4-2.3-.3-.2-.5-.4-.8-.6-.1 0-.1-.1-.2-.2-.3-.2-.5-.4-.8-.6-.2-.2-.5-.3-.7-.5-.1-.1-.2-.2-.4-.2-.2-.2-.5-.3-.7-.5-.1-.1-.3-.2-.4-.2-.3-.2-.5-.3-.8-.4-.1-.1-.3-.2-.4-.2-.3-.1-.5-.3-.8-.4-.1-.1-.2-.1-.4-.2-.3-.2-.7-.3-1-.4-.4-.2-.8-.3-1.2-.4h-.1c-.4-.1-.8-.2-1.2-.4-.3-.1-.7-.2-1.1-.3-.2-.1-.4-.1-.7-.2-.3-.1-.5-.1-.7-.2-1.1-.2-2.2-.4-3.3-.4v165c1.3.3 2.6.4 3.9.4 8.8 0 16.1-6.2 17.9-14.4v49c0 7.3 5.9 13.3 13.2 13.3 7.3 0 13.2-5.9 13.2-13.3v-49.1c3.2 6.1 9.5 10.2 16.7 10.2 10.4 0 18.9-8.5 18.9-19v-28.9l-.1-.5z" class="st29"/>
  <path d="M1011.5 520L898.2 338.5l-2.1-3.3-15.8-25.4-1.4-2.2-9.5-15.2-7-11.3-.5-.7-.6-1-3-4.9-14.3-23c-.3-.4-.5-.8-.8-1.2-.3-.5-.7-.9-1.1-1.3-.4-.5-.9-.9-1.4-1.3-.2-.1-.3-.2-.5-.4l-.1-.1c-.2-.1-.3-.2-.5-.3-.1-.1-.3-.2-.4-.3-.1 0-.1-.1-.2-.1-.1-.1-.3-.2-.4-.3-.1 0-.2-.1-.2-.1-.2-.1-.3-.2-.5-.2-.1 0-.2-.1-.2-.1-.2-.1-.3-.2-.5-.2-.1 0-.1-.1-.2-.1-.2-.1-.4-.2-.6-.2-.2-.1-.5-.2-.7-.3-.2-.1-.4-.1-.7-.2-.1 0-.3-.1-.4-.1-.1 0-.2 0-.2-.1-.1 0-.3-.1-.4-.1-.2 0-.3-.1-.4-.1-.7-.2-1.5-.2-2.2-.3h-2.1c-3.4.2-6.8 1.6-9.4 4-.4.4-.8.7-1.2 1.2-.6.7-1.2 1.5-1.8 2.3l-12.5 20-2.8 4.5-1 1.7-21.6 34-3 4.9-9 14.5-7 11.2-.6 1-93.9-150.5-30.3-48.5-.4-.6-2.4-3.8-28.3-45.4-1.9-3-5.2-8.3L573.8 46l-.2-.3-1.1-1.8c-.4-.7-.9-1.4-1.4-2.1-.6-.8-1.2-1.5-1.9-2.2-.8-.8-1.6-1.6-2.4-2.3-.3-.2-.5-.4-.8-.6-.1 0-.1-.1-.2-.2-.3-.2-.5-.4-.8-.6-.2-.2-.5-.3-.7-.5-.1-.1-.2-.2-.4-.2-.2-.2-.5-.3-.7-.5-.1-.1-.3-.2-.4-.2-.3-.2-.5-.3-.8-.4-.1-.1-.3-.2-.4-.2-.3-.1-.5-.3-.8-.4-.1-.1-.2-.1-.4-.2-.3-.2-.7-.3-1-.4-.4-.2-.8-.3-1.2-.4h-.1c-.4-.1-.8-.2-1.2-.4-.3-.1-.7-.2-1.1-.3-.2-.1-.4-.1-.7-.2-.3-.1-.5-.1-.7-.2-1.2-.3-2.5-.4-3.8-.5v514.9h285.5c2.7 0 5.4-.4 7.8-1.1h153.9c12.7-.1 20.3-14 13.7-24.7z" class="st14"/>
  <path d="M309.2 521.6h-141c-50.9 0-92.2 41.3-92.2 92.2v35.8h233.1v-128z" class="st66"/>
  <path d="M173.1 608.6c-1.2 0-2.4.1-3.6.3 1.1-3 1.6-6.2 1.6-9.5 0-15.7-12.7-28.4-28.4-28.4-12.1 0-22.5 7.6-26.5 18.3-4.4-3.6-10-5.8-16.1-5.8-13.9 0-25.2 11.3-25.2 25.2 0 1.4.1 2.8.4 4.2-3.6-3.5-8.5-5.7-14-5.7-11.1 0-20 9-20 20 0 2.1.3 4.1.9 6-2.5-4.1-7-6.8-12.1-6.8-7.8 0-14.2 6.3-14.2 14.2 0 6.6 4.5 12.2 10.7 13.7l.1.4H173c12.7 0 23-10.3 23-23 .2-12.7-10.1-23.1-22.9-23.1z" class="st67"/>
  <path d="M173.1 608.6c-1.2 0-2.4.1-3.6.3 1.1-3 1.6-6.2 1.6-9.5 0-12.8-8.5-23.6-20.1-27.1 4.1 19.9-9.1 41.4-21 50.2-39.2 29.1-109.1 19-114 16.2-.1.6-.1 1.2-.1 1.9 0 6.6 4.5 12.2 10.7 13.7l.1.4H173c12.7 0 23-10.3 23-23 .2-12.7-10.1-23.1-22.9-23.1z" class="st68"/>
  <circle cx="112.8" cy="628.2" r="6.7" class="st68"/>
  <circle cx="135.8" cy="591.6" r="5.4" class="st68"/>
  <ellipse cx="61.3" cy="623.8" transform="rotate(-35.865 61.32 623.746)" class="st68" rx="6.4" ry="6.4"/>
  <path d="M499.6 658.3c0 5.4-4.4 9.7-9.7 9.7H1.2c-.8-2.6-1.2-5.3-1.2-8.2v-11.1l60.3-.2h429.5c5.4.1 9.8 4.5 9.8 9.8z" class="st69"/>
  <path d="M1078.1 661.7H513" class="st70"/>
  <path d="M793.7 573.1h193.7c21.8 0 39.4 17.7 39.4 39.4 0 21.8-17.7 39.4-39.4 39.4H793.7v-78.8z" class="st71"/>
  <path d="M694.2 534.9h326.7c16 0 29 13 29 29s-13 29-29 29H694.2v-58z" class="st71"/>
  <path d="M539.6 458.6H438.5l-1.7-20.5-1.7-19.6c33.9-1.8 57.5.7 73.5 5.8 1.3.4 2.5.8 3.7 1.3 11.6 4.3 18.7 10.1 22.8 16.5 3.3 5.2 4.5 10.9 4.5 16.5z" class="st72"/>
  <path d="M508.6 424.3c-2.5 0-4.5 1.3-4.5 3.2V439c0 1.9-2.8 3.5-6.3 3.5s-6.3-1.6-6.3-3.5v-11.5c0-2.8-3.7-4.8-8.2-4.8s-8.2 2-8.2 4.8v12.9c-.9 1.3-3.2 2.2-5.8 2.2-2.9 0-5.3-1.1-6-2.6v-7.6c0-1.3-1.9-2.3-4.2-2.3-2.3 0-4.2 1-4.2 2.3v16.4c-.9 1-2.8 1.7-4.9 1.7-2.3 0-4.3-.8-5.2-2V441c0-1.7-2.5-3.1-5.6-3.1-.9 0-1.8.1-2.5.3l-1.7-19.6c34.1-1.9 57.6.6 73.6 5.7z" class="st29"/>
  <path d="M353.8 450.5c0-17 25.1-37.7 56.1-37.7s56.1 20.7 56.1 37.7c0 17-25.1 24-56.1 24-30.9 0-56.1-7-56.1-24z" class="st73"/>
  <path d="M438.6 418.9c1.7 29.9-59.8 39.9-84.1 26.9-.4 1.6-.6 3.2-.6 4.7 0 17 25.1 24 56.1 24s56.1-7 56.1-24c0-11.3-11.1-24.2-27.5-31.6z" class="st74"/>
  <path d="M523.1 600.8C502.9 513.7 439.2 450 363.7 450s-139.3 63.7-159.4 150.9h318.8z" class="st66"/>
  <path d="M523.1 600.8C502.9 513.7 439.2 450 363.7 450v150.9h159.4z" class="st75"/>
  <path d="M448.7 649.3c-20.2-55.1-83.9-95.4-159.4-95.4S150 594.2 129.9 649.3h318.8z" class="st66"/>
  <path d="M448.7 649.3c-20.2-55.1-83.9-95.4-159.4-95.4v95.4h159.4z" class="st75"/>
  <path d="M800.3 597c-20.2-71.7-83.9-124.2-159.4-124.2S501.6 525.2 481.5 597h318.8z" class="st66"/>
  <path d="M800.3 597c-20.2-71.7-83.9-124.2-159.4-124.2V597h159.4z" class="st75"/>
  <path d="M922.9 652.7c-20.2-55.1-83.9-95.4-159.4-95.4s-139.3 40.3-159.4 95.4h318.8z" class="st66"/>
  <path d="M922.9 652.7c-20.2-55.1-83.9-95.4-159.4-95.4v95.4h159.4z" class="st75"/>
  <path d="M592.4 461.9c9 0 16.4 7.4 16.4 16.4v65.2c0 9-7.4 16.4-16.4 16.4-9 0-16.4-7.4-16.4-16.4v-65.2c0-9 7.4-16.4 16.4-16.4z" class="st73"/>
  <path d="M592.4 494.9c-12.8.3-16.4-16.6-13.1-26.5-2.1 2.8-3.4 6.2-3.4 9.9v65.2c0 9 7.4 16.4 16.4 16.4 9 0 16.4-7.4 16.4-16.4v-64.9c.2 13.1-9.7 16.1-16.3 16.3z" class="st74"/>
  <path d="M433 461.9c9 0 16.4 7.4 16.4 16.4v65.2c0 9-7.4 16.4-16.4 16.4-9 0-16.4-7.4-16.4-16.4v-65.2c-.1-9 7.3-16.4 16.4-16.4z" class="st73"/>
  <path d="M442.6 465c0 41.2-19 53.6-26.1 55v23.5c0 9 7.4 16.4 16.4 16.4 9 0 16.4-7.4 16.4-16.4v-65.2c.1-5.4-2.6-10.3-6.7-13.3z" class="st74"/>
  <path d="M576 579.9c0-13.8 17.2-30.6 38.4-30.6s38.4 16.8 38.4 30.6-17.2 19.5-38.4 19.5-38.4-5.7-38.4-19.5z" class="st73"/>
  <path d="M634 554.3c3.2 8.4 2.4 20.3-3.7 24.2-17.2 8.6-37.3 8.2-53.9-2.4-.3 1.3-.4 2.6-.4 3.8 0 13.8 17.2 19.5 38.4 19.5s38.4-5.6 38.4-19.5c.1-9.2-7.5-19.6-18.8-25.6z" class="st74"/>
  <path d="M584.1 488.2v83.3H442.3v-83.3c0-1.7.1-3.5.3-5.1.7-5.2 2.4-10 5.1-14.3 6.6-11 18.6-18.3 32.3-18.3h66.4c14.4 0 26.9 8 33.3 19.9 2.8 5.2 4.4 11.3 4.4 17.8z" class="st69"/>
  <path d="M584.1 488.2v47.4c-.9 2.4-3.2 4.1-5.9 4.1-2.2 0-4.1-1.1-5.2-2.8V518c0-3.1-2.5-5.6-5.6-5.6-3.1 0-5.6 2.5-5.6 5.6v9.2c-.7 1.9-2.4 3.3-4.4 3.6v19.4c0 4.2-3.4 7.7-7.7 7.7-3.6 0-6.6-2.5-7.4-5.9v-20c0-4.2-3.4-7.7-7.7-7.7-4.2 0-7.7 3.4-7.7 7.7v20.3c-.9 3.2-3.8 5.5-7.3 5.5-2.1 0-4.1-.9-5.5-2.3v-37.4c0-2.7-2.2-4.9-4.9-4.9s-4.9 2.2-4.9 4.9v29.7c-.7 2.3-2.8 4-5.3 4-3.1 0-5.6-2.5-5.6-5.6V532c0-2.3-1.9-4.2-4.2-4.2s-4.2 1.9-4.2 4.2v24.3c-.7 1.8-2.5 3.1-4.5 3.1-2.1 0-3.8-1.3-4.5-3.1v-25.7c0-2.7-2.2-4.9-4.9-4.9s-4.9 2.2-4.9 4.9V546c0 4.2-3.4 7.7-7.7 7.7-2.8 0-5.3-1.5-6.6-3.8v7.5c0 2.7-2.2 4.9-4.9 4.9s-4.9-2.2-4.9-4.9V483c.7-5.2 2.4-10 5.1-14.3 6.6-11 18.6-18.3 32.3-18.3h66.4c14.4 0 26.9 8 33.3 19.9 3.3 5.3 4.9 11.4 4.9 17.9z" class="st72"/>
  <path d="M546.4 449H480c-13.7 0-25.8 7.3-32.3 18.3v30.4c0 2.7 2.2 4.9 4.9 4.9 1.9 0 3.6-1.2 4.4-2.8v-25c0-2.7 2.2-4.9 4.9-4.9h.3v41.8c0 1.9 1.6 3.5 3.5 3.5s3.5-1.6 3.5-3.5v-5.8c1 .9 2.3 1.5 3.8 1.5 2.7 0 4.9-1.9 5.4-4.4v-12.6c0-3.1 2.5-5.6 5.6-5.6 3.1 0 5.6 2.5 5.6 5.6V504c.8 2 2.8 3.5 5.2 3.5 2.2 0 4-1.2 4.9-3v-29.2c0-2.3 1.9-4.2 4.2-4.2 2.3 0 4.2 1.9 4.2 4.2v13.5c.7 2.7 3.1 4.7 6 4.7 2.6 0 4.9-1.6 5.8-3.9v-23c0-5 3.7-8.6 8.2-8.6 4.5 0 8.2 3.7 8.2 8.6v20.6c0 3.5 2.8 6.3 6.3 6.3s6.3-2.8 6.3-6.3v-20.6c0-3.5 2-5.7 4.5-5.7s4.5 2.3 4.5 5.7v20.6c0 3.5 2.8 6.3 6.3 6.3 1.1 0 2.2-.3 3.1-.9v11.3c0 3.5 2.8 6.3 6.3 6.3s6.3-2.8 6.3-6.3V469c-6.6-11.9-19.1-20-33.5-20z" class="st29"/>
  <path d="M520.3 560.5v10.9" class="st76"/>
  <path d="M349.4 660.3c0-13.8 25.1-30.6 56.1-30.6s56.1 16.8 56.1 30.6-25.1 19.5-56.1 19.5-56.1-5.7-56.1-19.5z" class="st73"/>
  <path d="M434.1 634.7c4.7 8.4 3.6 10.5-5.4 14.5-25 8.6-54.4 17.9-78.7 7.3-.4 1.3-.6 2.6-.6 3.8 0 13.8 25.1 19.5 56.1 19.5s56.1-5.6 56.1-19.5c0-9.2-11.1-19.6-27.5-25.6z" class="st74"/>
  <path d="M416.3 571.4c0-13.8 17.2-30.6 38.4-30.6s38.4 16.8 38.4 30.6-17.2 19.5-38.4 19.5-38.4-5.7-38.4-19.5z" class="st73"/>
  <path d="M474.4 545.7c3.2 8.4-27.7 40.4-57.6 21.8-.3 1.3-.4 2.6-.4 3.8 0 13.8 17.2 19.5 38.4 19.5s38.4-5.6 38.4-19.5c0-9.1-7.6-19.5-18.8-25.6z" class="st74"/>
  <path d="M443.3 579h8.8c14.9 0 27.1 12.2 27.1 27.1v39.2c0 14.9-12.2 27.1-27.1 27.1h-8.8c-14.9 0-27.1-12.2-27.1-27.1v-39.2c0-14.9 12.2-27.1 27.1-27.1z" class="st73"/>
  <path d="M463.5 581.4c1.4 58.7-43.4 72.8-46.3 70.7 3.1 11.7 13.3 20.3 25.3 20.3h10.3c14.5 0 26.3-12.6 26.3-27.9v-37.6c0-11.3-6.4-21.1-15.6-25.5z" class="st74"/>
  <path d="M610.6 589.3v83.3H468.7v-83.3c0-1.7.1-3.5.3-5.1.7-5.2 2.4-10 5.1-14.3 6.6-11 18.6-18.3 32.3-18.3h66.4c14.4 0 26.9 8 33.3 19.9 2.9 5.2 4.5 11.3 4.5 17.8z" class="st69"/>
  <path d="M610.6 589.3v47.4c-.9 2.4-3.2 4.1-5.9 4.1-2.2 0-4.1-1.1-5.2-2.8v-18.9c0-3.1-2.5-5.6-5.6-5.6-3.1 0-5.6 2.5-5.6 5.6v9.2c-.7 1.9-2.4 3.3-4.4 3.6v19.4c0 4.2-3.4 7.7-7.7 7.7-3.6 0-6.6-2.5-7.4-5.9v-19.8c0-4.2-3.4-7.7-7.7-7.7-4.2 0-7.7 3.4-7.7 7.7v20.3c-.9 3.2-3.8 5.5-7.3 5.5-2.1 0-4.1-.9-5.5-2.3v-37.4c0-2.7-2.2-4.9-4.9-4.9s-4.9 2.2-4.9 4.9v29.7c-.7 2.3-2.8 4-5.3 4-3.1 0-5.6-2.5-5.6-5.6v-14.2c0-2.3-1.9-4.2-4.2-4.2s-4.2 1.9-4.2 4.2v24.3c-.7 1.8-2.5 3.1-4.5 3.1-2.1 0-3.8-1.3-4.5-3.1v-25.7c0-2.7-2.2-4.9-4.9-4.9s-4.9 2.2-4.9 4.9v15.4c0 4.2-3.4 7.7-7.7 7.7-2.8 0-5.3-1.5-6.6-3.8v7.5c0 2.7-2.2 4.9-4.9 4.9s-4.9-2.2-4.9-4.9v-74.3c.7-5.2 2.4-10 5.1-14.3 6.6-11 18.6-18.3 32.3-18.3h66.4c14.4 0 26.9 8 33.3 19.9 3.3 5 4.9 11.1 4.9 17.6z" class="st72"/>
  <path d="M572.8 550.1h-66.4c-13.7 0-25.8 7.3-32.3 18.3v30.4c0 2.7 2.2 4.9 4.9 4.9 1.9 0 3.6-1.2 4.4-2.8v-25c0-2.7 2.2-4.9 4.9-4.9h.3v41.8c0 1.9 1.6 3.5 3.5 3.5s3.5-1.6 3.5-3.5V607c1 .9 2.3 1.5 3.8 1.5 2.7 0 4.9-1.9 5.4-4.4v-12.6c0-3.1 2.5-5.6 5.6-5.6s5.6 2.5 5.6 5.6V605c.8 2 2.8 3.5 5.2 3.5 2.2 0 4-1.2 4.9-3v-29.2c0-2.3 1.9-4.2 4.2-4.2s4.2 1.9 4.2 4.2v13.5c.7 2.7 3.1 4.7 6 4.7 2.6 0 4.9-1.6 5.8-3.9v-23c0-5 3.7-8.6 8.2-8.6 4.5 0 8.2 3.7 8.2 8.6v20.6c0 3.5 2.8 6.3 6.3 6.3s6.3-2.8 6.3-6.3v-20.6c0-3.5 2-5.7 4.5-5.7s4.5 2.3 4.5 5.7v20.6c0 3.5 2.8 6.3 6.3 6.3 1.1 0 2.2-.3 3.1-.9v11.3c0 3.5 2.8 6.3 6.3 6.3s6.3-2.8 6.3-6.3V570c-6.6-11.8-19.1-19.9-33.5-19.9z" class="st29"/>
  <path d="M629.6 590.6H640c14.5 0 26.3 11.8 26.3 26.3v35.4c0 14.5-11.8 26.3-26.3 26.3h-10.3c-14.5 0-26.3-11.8-26.3-26.3V617c-.1-14.5 11.8-26.4 26.2-26.4z" class="st73"/>
  <path d="M648.1 649.6c5.8-18.9 5.1-37.8 2.6-56.7-3.3-1.5-6.9-2.3-10.7-2.3h-10.3c-14.5 0-26.3 11.8-26.3 26.3v35.4c0 2.5.4 4.9 1 7.2 2.9 2 6.2 3.6 9.8 4.6 12.9 1.7 30.7-1.5 33.9-14.5z" class="st73"/>
  <path d="M650.7 593c3.7 56.6-43.4 68.7-46.3 66.6 3.1 11 13.3 19.1 25.3 19.1H640c14.5 0 26.3-11.8 26.3-26.3V617c0-10.7-6.4-19.9-15.6-24z" class="st74"/>
  <path d="M509 667.2c-.4-5.7-5.1-10.3-10.9-10.3s-10.6 4.5-10.9 10.3H509zm35.3 0c-.4-5.7-5.1-10.3-10.9-10.3s-10.6 4.5-10.9 10.3h21.8zm40.5 0c-.3-4.6-4.1-8.3-8.8-8.3-4.7 0-8.5 3.6-8.8 8.3h17.6z" class="st29"/>
  <path d="M605 667.2c-.3-5.3-4.8-9.6-10.2-9.6s-9.9 4.2-10.2 9.6H605zm-81.9 0c-.2-3.8-3.4-6.9-7.3-6.9s-7.1 3-7.3 6.9h14.6zm32.6 0c-.2-3-2.7-5.4-5.7-5.4-3.1 0-5.5 2.4-5.7 5.4h11.4zm-68.6 0c-.2-3-2.7-5.4-5.7-5.4s-5.5 2.4-5.7 5.4h11.4zm80.1 0c-.2-3-2.7-5.4-5.7-5.4s-5.5 2.4-5.7 5.4h11.4z" class="st29"/>
  <path d="M345.2 312.4v28.5c0 21.9-21.3 39.7-47.6 39.7h-31.2" class="st78"/>
  <path d="M221.9 396.6v28.5c0 21.9 18.8 39.7 42 39.7h27.5" class="st79"/>
  <path d="M221.5 231.8v28.5c0 21.9 19.8 39.7 44.3 39.7h29" class="st80"/>
  <path d="M344.8 434.3v28.5c0 21.9-23.3 39.7-52.1 39.7" class="st81"/>
  <path d="M294.5 206.1h-6.2c-5.2 0-9.5 4.2-9.5 9.5v386.8c0 5.2 4.2 9.5 9.5 9.5h6.2c5.2 0 9.5-4.2 9.5-9.5V215.6c0-5.2-4.3-9.5-9.5-9.5z" class="st32"/>
  <path d="M291.3 206.1c-7 0-12.6 5.3-12.6 11.8V600c0 6.5 5.6 11.8 12.6 11.8" class="st33"/>
  <path d="M156.4 389.9c0-21.6 27.9-47.1 62.4-47.1 34.4 0 62.4 25.5 62.4 47.1s-27.9 31-62.4 31c-34.5-.1-62.4-9.5-62.4-31z" class="st82"/>
  <path d="M259.3 355.6c6.9 51.8-69.1 53.3-101.4 42.3 6.2 15.9 31.1 23 60.9 23 34.4 0 62.4-9.4 62.4-31-.1-11.9-8.6-25-21.9-34.3z" class="st83"/>
  <circle cx="178.8" cy="366.1" r="4.3" class="st29"/>
  <ellipse cx="242.4" cy="394.9" transform="rotate(-26.386 242.373 394.95)" class="st29" rx="4.3" ry="4.3"/>
  <ellipse cx="213.1" cy="355.6" transform="rotate(-26.386 213.125 355.578)" class="st29" rx="4.3" ry="4.3"/>
  <ellipse cx="210.3" cy="380.6" transform="rotate(-26.386 210.295 380.577)" class="st29" rx="4.3" ry="4.3"/>
  <ellipse cx="187.5" cy="390.6" transform="rotate(-26.386 187.51 390.61)" class="st29" rx="4.3" ry="4.3"/>
  <ellipse cx="250.4" cy="366.1" transform="rotate(-26.386 250.432 366.08)" class="st29" rx="4.3" ry="4.3"/>
  <path d="M232.5 197.2c0-21.6 27.9-47.1 62.4-47.1 34.4 0 62.4 25.5 62.4 47.1s-27.9 31-62.4 31c-34.4 0-62.4-9.5-62.4-31z" class="st82"/>
  <path d="M335.4 162.9c6.9 51.8-69.1 53.3-101.4 42.3 6.2 15.9 31.1 23 60.9 23 34.4 0 62.4-9.4 62.4-31-.1-11.9-8.5-24.9-21.9-34.3z" class="st83"/>
  <circle cx="255" cy="173.4" r="4.3" class="st29"/>
  <ellipse cx="318.5" cy="202.3" transform="rotate(-26.386 318.503 202.276)" class="st29" rx="4.3" ry="4.3"/>
  <ellipse cx="289.3" cy="162.9" transform="rotate(-26.386 289.255 162.906)" class="st29" rx="4.3" ry="4.3"/>
  <ellipse cx="286.4" cy="187.9" transform="rotate(-26.386 286.435 187.913)" class="st29" rx="4.3" ry="4.3"/>
  <ellipse cx="263.6" cy="197.9" transform="rotate(-26.386 263.636 197.937)" class="st29" rx="4.3" ry="4.3"/>
  <ellipse cx="326.6" cy="173.4" transform="rotate(-26.386 326.574 173.417)" class="st29" rx="4.3" ry="4.3"/>
  <path d="M179.2 255.9c0-15.4 20-33.6 44.6-33.6s44.6 18.2 44.6 33.6c0 15.4-20 22.2-44.6 22.2s-44.6-6.8-44.6-22.2z" class="st82"/>
  <path d="M252.8 231.4c4.9 37-49.4 38.1-72.5 30.2 4.4 11.4 22.2 16.4 43.5 16.4 24.6 0 44.6-6.7 44.6-22.2 0-8.4-6.1-17.7-15.6-24.4z" class="st83"/>
  <circle cx="195.3" cy="238.9" r="3.1" class="st29"/>
  <ellipse cx="240.7" cy="259.5" transform="rotate(-26.386 240.692 259.516)" class="st29" rx="3.1" ry="3.1"/>
  <ellipse cx="219.8" cy="231.4" transform="rotate(-26.386 219.783 231.37)" class="st29" rx="3.1" ry="3.1"/>
  <ellipse cx="217.8" cy="249.2" transform="rotate(-26.386 217.764 249.247)" class="st29" rx="3.1" ry="3.1"/>
  <ellipse cx="201.5" cy="256.4" transform="rotate(-26.386 201.467 256.412)" class="st29" rx="3.1" ry="3.1"/>
  <ellipse cx="246.5" cy="238.9" transform="rotate(-26.386 246.458 238.884)" class="st29" rx="3.1" ry="3.1"/>
  <path d="M293.5 438.9c0-20.1 26.1-43.9 58.2-43.9 32.2 0 58.2 23.8 58.2 43.9 0 20.1-26.1 28.9-58.2 28.9s-58.2-8.8-58.2-28.9z" class="st82"/>
  <path d="M389.6 406.9c6.4 48.4-64.5 49.8-94.7 39.5 5.8 14.8 29 21.4 56.8 21.4 32.2 0 58.2-8.8 58.2-28.9.1-11.1-7.9-23.3-20.3-32z" class="st83"/>
  <circle cx="314.5" cy="416.7" r="4" class="st29"/>
  <ellipse cx="373.8" cy="443.6" transform="rotate(-26.386 373.77 443.636)" class="st29" rx="4" ry="4"/>
  <ellipse cx="346.5" cy="406.9" transform="rotate(-26.386 346.47 406.882)" class="st29" rx="4" ry="4"/>
  <ellipse cx="343.8" cy="430.2" transform="rotate(-26.386 343.827 430.225)" class="st29" rx="4" ry="4"/>
  <ellipse cx="322.6" cy="439.6" transform="rotate(-26.386 322.547 439.586)" class="st29" rx="4" ry="4"/>
  <ellipse cx="381.3" cy="416.7" transform="rotate(-26.386 381.303 416.69)" class="st29" rx="4" ry="4"/>
  <path d="M287.9 318.9c0-19.6 25.5-42.9 56.8-42.9 31.4 0 56.8 23.3 56.8 42.9 0 19.6-25.5 28.3-56.8 28.3-31.3 0-56.8-8.6-56.8-28.3z" class="st82"/>
  <path d="M381.7 287.7c6.3 47.2-63 48.6-92.4 38.6 5.6 14.5 28.3 20.9 55.5 20.9 31.4 0 56.8-8.6 56.8-28.3 0-10.8-7.7-22.7-19.9-31.2z" class="st83"/>
  <circle cx="308.4" cy="297.3" r="4" class="st29"/>
  <ellipse cx="366.3" cy="323.6" transform="rotate(-26.386 366.304 323.564)" class="st29" rx="4" ry="4"/>
  <ellipse cx="339.6" cy="287.7" transform="rotate(-26.386 339.634 287.67)" class="st29" rx="4" ry="4"/>
  <ellipse cx="337.1" cy="310.5" transform="rotate(-26.386 337.065 310.47)" class="st29" rx="4" ry="4"/>
  <ellipse cx="316.3" cy="319.6" transform="rotate(-26.386 316.286 319.61)" class="st29" rx="4" ry="4"/>
  <ellipse cx="373.7" cy="297.3" transform="rotate(-26.386 373.658 297.252)" class="st29" rx="4" ry="4"/>
  <path d="M771.6 460.1h-15.9c-2.9 0-5.2 2.3-5.2 5.2v123.3c0 2.9 2.3 5.2 5.2 5.2h15.9c2.9 0 5.2-2.3 5.2-5.2V465.3c-.1-2.9-2.4-5.2-5.2-5.2z" class="st32"/>
  <path d="M763.4 460.1c-7.3 0-13.1 1.5-13.1 3.4v126.9c0 1.9 5.9 3.4 13.1 3.4" class="st33"/>
  <path d="M782.7 199.3v259" class="st84"/>
  <path d="M801.7 235.7l-.7 190.7" class="st85"/>
  <path d="M801.1 449.2l-.1 25.9" class="st86"/>
  <path d="M640.8 282.5l-.5 112.7" class="st87"/>
  <path d="M844 251.1l-.9 173.7m35.2-173.7l-.9 153.2m.9 25.1v32.7" class="st88"/>
  <path d="M824.4 207.4l-.8 188.8" class="st89"/>
  <path d="M739.5 240.2v261.2" class="st90"/>
  <path d="M762.2 225.2v254.9" class="st91"/>
  <path d="M720.2 225.2v250.3" class="st88"/>
  <path d="M701.1 254.3v199" class="st92"/>
  <path d="M678.5 244.7v145.1" class="st91"/>
  <path d="M657.3 264v148.8" class="st93"/>
  <path d="M656.4 435.8v15m0 32.1V498" class="st94"/>
  <path d="M700.2 479.9v15" class="st95"/>
  <path d="M677.6 418.5v15.1" class="st96"/>
  <path d="M677.6 418.5v15.1" class="st97"/>
  <path d="M823.4 428.9v15" class="st98"/>
  <path d="M860.6 239.6v148.7" class="st93"/>
  <circle cx="220.5" cy="637.6" r="9.6" class="st99"/>
  <circle cx="220.5" cy="637.6" r="5.1" class="st100"/>
  <circle cx="165.2" cy="634.2" r="9.6" class="st99"/>
  <circle cx="165.2" cy="634.2" r="5.1" class="st100"/>
  <circle cx="202.2" cy="602.5" r="9.6" class="st99"/>
  <circle cx="202.2" cy="602.5" r="5.1" class="st100"/>
  <circle cx="333.1" cy="583.6" r="9.6" class="st99"/>
  <circle cx="333.1" cy="583.6" r="5.1" class="st100"/>
  <circle cx="253.8" cy="575.4" r="9.6" class="st99"/>
  <circle cx="253.8" cy="575.4" r="5.1" class="st100"/>
  <circle cx="263.4" cy="624.6" r="9.6" class="st99"/>
  <circle cx="263.4" cy="624.6" r="5.1" class="st100"/>
  <circle cx="316.6" cy="637.6" r="9.6" class="st99"/>
  <circle cx="316.6" cy="637.6" r="5.1" class="st100"/>
  <circle cx="368.9" cy="616.7" r="9.6" class="st99"/>
  <circle cx="368.9" cy="616.7" r="5.1" class="st100"/>
  <path d="M535.1 442v6.3c0 1.9-2.8 3.5-6.3 3.5s-6.3-1.6-6.3-3.5V442c-.9.3-2 .5-3.1.5-3.5 0-6.3-1.6-6.3-3.5v-11.5c0-.8-.3-1.4-.9-1.9 11.7 4.2 18.8 10 22.9 16.4z" class="st29"/>
  <path d="M1014.1 606.9c-1.2 0-2.4.1-3.6.3 1.1-3 1.6-6.2 1.6-9.5 0-15.7-12.7-28.4-28.4-28.4-12.1 0-22.5 7.6-26.5 18.3-4.4-3.6-10-5.8-16.1-5.8-13.9 0-25.2 11.3-25.2 25.2 0 1.4.1 2.8.4 4.2-3.6-3.5-8.5-5.7-14-5.7-11.1 0-20 9-20 20 0 2.1.3 4.1.9 6-2.5-4.1-7-6.8-12.1-6.8-7.8 0-14.2 6.3-14.2 14.2 0 6.6 4.5 12.2 10.7 13.7l.1.4H1014c12.7 0 23-10.3 23-23 .1-12.8-10.2-23.1-22.9-23.1z" class="st67"/>
  <path d="M1014.1 606.9c-1.2 0-2.4.1-3.6.3 1.1-3 1.6-6.2 1.6-9.5 0-12.8-8.5-23.6-20.1-27.1 4.1 19.9-9.1 41.4-21 50.2-39.2 29.1-109.1 19-114 16.2-.1.6-.1 1.2-.1 1.9 0 6.6 4.5 12.2 10.7 13.7l.1.4H1014c12.7 0 23-10.3 23-23 .1-12.8-10.2-23.1-22.9-23.1z" class="st68"/>
  <circle cx="953.7" cy="626.5" r="6.7" class="st68"/>
  <circle cx="976.7" cy="589.9" r="5.4" class="st68"/>
  <ellipse cx="902.3" cy="622.1" transform="rotate(-35.865 902.21 622.022)" class="st68" rx="6.4" ry="6.4"/>
  <path d="M697.8 703.8h347.3" class="st101"/>
  <path d="M25.6 680h824" class="st102"/>
  <path d="M322.9 680h738.9M71.3 703.8h827.4" class="st103"/>
  <path d="M911 728.4c0 6.8-5.5 12.3-12.3 12.3H72c-15.4-.4-28.3-10.6-32.7-24.5h859.4c6.8-.1 12.3 5.4 12.3 12.2z" class="st104"/>
  <path d="M684.1 728.4H999" class="st105"/>
  <path d="M322.9 703.8h293.6" class="st103"/>
  <path d="M222.5 703.8h144.3" class="st106"/>
  <path d="M69.7 703.8h297.9" class="st101"/>
  <path d="M587 703.8h144.3" class="st107"/>
  <path d="M351.5 727h265" class="st103"/>
  <path d="M1000.4 454.2H991c-2.4 0-4.3 1.9-4.3 4.3V555c0 2.4 1.9 4.3 4.3 4.3h9.4c2.4 0 4.3-1.9 4.3-4.3v-96.4c0-2.5-1.9-4.4-4.3-4.4z" class="st108"/>
  <path d="M995.6 454.2c-5 0-9 1.5-9 3.4v98.2c0 1.9 4.1 3.4 9 3.4" class="st109"/>
  <circle cx="995.6" cy="408.7" r="80.3" class="st110"/>
  <path d="M1028.2 335.4c21.1 24.1 23.7 66.4 8.7 94.6-8 15-23 25-38 33-21 9.6-44.9 7.7-64.7-2.5 14.7 17.5 36.8 28.6 61.4 28.6 44.3 0 80.3-35.9 80.3-80.3 0-32.8-19.6-60.9-47.7-73.4z" class="st111"/>
  <circle cx="953.8" cy="444.1" r="6.5" class="st112"/>
  <circle cx="997.5" cy="420.6" r="6.5" class="st112"/>
  <circle cx="927.7" cy="424.6" r="6.5" class="st112"/>
  <circle cx="938.2" cy="385.6" r="6.5" class="st112"/>
  <circle cx="1005.1" cy="456.6" r="6.5" class="st112"/>
  <circle cx="1041.9" cy="424.1" r="6.5" class="st112"/>
  <circle cx="1046.1" cy="382" r="6.5" class="st112"/>
  <circle cx="967.5" cy="394.6" r="6.5" class="st112"/>
  <circle cx="1005.3" cy="381" r="6.5" class="st112"/>
  <circle cx="960.3" cy="351.9" r="6.5" class="st112"/>
  <circle cx="1009.8" cy="343.5" r="6.5" class="st112"/>
</svg>
